<svg xmlns="http://www.w3.org/2000/svg" viewBox="0 0 112.51 64.64"><defs><style>.cls-1{fill:#312783;}.cls-2{fill:#e30613;}.cls-3{fill:#009640;}</style></defs><title>Aktiv 1</title><g id="Lag_2" data-name="Lag 2"><g id="Layer_1" data-name="Layer 1"><path class="cls-1" d="M73,1.24A95.54,95.54,0,0,1,88.9,0c8.18,0,14.18,1.9,18,5.33,3.52,3.05,5.62,7.71,5.62,13.42s-1.72,10.38-5,13.71c-4.38,4.66-11.52,7-19.61,7a28.32,28.32,0,0,1-6.67-.58V64.64H73Zm8.28,30.93a27.62,27.62,0,0,0,6.86.67c10,0,16.08-4.85,16.08-13.71,0-8.47-6-12.56-15.13-12.56a34.78,34.78,0,0,0-7.81.67Z"/><path class="cls-2" d="M73,64.64l-8.27,0,0-30.91h-.28c-1.72,2.47-3.44,4.74-5,6.84l-19.64,24-10.28,0L52.78,37.39,27.83.44l9.8,0L58.69,32l6.1-7,0-24.45h8.28Z"/><path class="cls-3" d="M19.68.44h8.15V42.71c0,16.77-8.24,21.93-19.11,21.93A26.5,26.5,0,0,1,0,63.14l1.22-6.66A19.35,19.35,0,0,0,8.06,57.7c7.31,0,11.62-3.28,11.62-15.65Z"/></g></g></svg>